<?xml version="1.0" encoding="utf-8"?>
<!-- Generator: Adobe Illustrator 27.5.0, SVG Export Plug-In . SVG Version: 6.00 Build 0)  -->
<svg version="1.1" id="Layer_1" xmlns="http://www.w3.org/2000/svg" xmlns:xlink="http://www.w3.org/1999/xlink" x="0px" y="0px"
	 viewBox="0 0 197.7 25.85" style="enable-background:new 0 0 197.7 25.85;" xml:space="preserve">
<style type="text/css">
	.st0{fill:#F2F2F2;}
</style>
<g>
	<g>
		<path class="st0" d="M1.62,21.8c-0.18,0-0.32-0.05-0.43-0.16c-0.11-0.11-0.16-0.25-0.16-0.43V3.47c0-0.2,0.05-0.35,0.16-0.46
			C1.29,2.9,1.44,2.85,1.62,2.85h10.45c0.2,0,0.35,0.05,0.46,0.16c0.11,0.11,0.16,0.26,0.16,0.46v0.41c0,0.18-0.05,0.32-0.16,0.43
			c-0.11,0.11-0.26,0.16-0.46,0.16H2.73v7.28h8.8c0.2,0,0.35,0.05,0.46,0.16c0.11,0.11,0.16,0.26,0.16,0.46v0.41
			c0,0.18-0.05,0.32-0.16,0.43c-0.11,0.11-0.26,0.16-0.46,0.16h-8.8v7.83c0,0.18-0.05,0.32-0.16,0.43
			c-0.11,0.11-0.26,0.16-0.46,0.16H1.62z"/>
		<path class="st0" d="M16.29,4.82c-0.18,0-0.32-0.05-0.43-0.16c-0.11-0.11-0.16-0.25-0.16-0.43V3.2c0-0.18,0.05-0.33,0.16-0.45
			c0.11-0.12,0.25-0.18,0.43-0.18h1.03c0.18,0,0.33,0.06,0.45,0.18c0.12,0.12,0.18,0.27,0.18,0.45v1.03c0,0.18-0.06,0.32-0.18,0.43
			c-0.12,0.11-0.27,0.16-0.45,0.16H16.29z M16.59,21.8c-0.18,0-0.32-0.05-0.43-0.16c-0.11-0.11-0.16-0.25-0.16-0.43V8.32
			c0-0.18,0.05-0.32,0.16-0.43c0.11-0.11,0.25-0.16,0.43-0.16h0.46c0.18,0,0.32,0.05,0.43,0.16c0.11,0.11,0.16,0.25,0.16,0.43V21.2
			c0,0.18-0.05,0.32-0.16,0.43c-0.11,0.11-0.25,0.16-0.43,0.16H16.59z"/>
		<path class="st0" d="M26.59,21.8c-0.29,0-0.51-0.06-0.66-0.19c-0.15-0.13-0.28-0.29-0.36-0.49L20.58,8.56
			c-0.04-0.11-0.05-0.21-0.05-0.3c0-0.14,0.05-0.27,0.16-0.38c0.11-0.11,0.23-0.16,0.38-0.16h0.57c0.18,0,0.32,0.05,0.42,0.15
			c0.1,0.1,0.16,0.19,0.18,0.26l4.58,11.7l4.58-11.7c0.04-0.07,0.1-0.16,0.19-0.26c0.09-0.1,0.23-0.15,0.41-0.15h0.57
			c0.14,0,0.27,0.05,0.38,0.16c0.11,0.11,0.16,0.23,0.16,0.38c0,0.09-0.02,0.19-0.05,0.3l-4.98,12.56c-0.07,0.2-0.19,0.36-0.35,0.49
			c-0.16,0.13-0.39,0.19-0.68,0.19H26.59z"/>
		<path class="st0" d="M40.85,22.07c-1.75,0-3.14-0.57-4.17-1.72c-1.03-1.15-1.62-2.65-1.76-4.51c-0.02-0.27-0.03-0.63-0.03-1.08
			c0-0.45,0.01-0.81,0.03-1.08c0.09-1.23,0.38-2.31,0.87-3.25c0.49-0.94,1.16-1.67,2.02-2.19c0.86-0.52,1.87-0.79,3.05-0.79
			c1.26,0,2.34,0.28,3.22,0.84c0.88,0.56,1.57,1.36,2.04,2.41c0.48,1.05,0.72,2.29,0.72,3.74v0.41c0,0.18-0.06,0.32-0.18,0.43
			c-0.12,0.11-0.27,0.16-0.45,0.16h-9.64c0,0.14,0,0.23,0,0.27c0.04,0.81,0.23,1.58,0.57,2.32c0.34,0.73,0.83,1.33,1.46,1.79
			c0.63,0.46,1.38,0.69,2.25,0.69c0.78,0,1.42-0.12,1.94-0.35c0.51-0.23,0.93-0.49,1.23-0.77c0.31-0.28,0.51-0.49,0.6-0.64
			c0.16-0.23,0.29-0.37,0.38-0.42c0.09-0.04,0.23-0.07,0.43-0.07h0.43c0.16,0,0.3,0.05,0.42,0.15c0.12,0.1,0.17,0.23,0.15,0.39
			c-0.02,0.25-0.16,0.56-0.42,0.93c-0.26,0.37-0.63,0.74-1.11,1.1c-0.48,0.36-1.06,0.66-1.75,0.89S41.69,22.07,40.85,22.07z
			 M36.57,13.92h8.61v-0.11c0-0.9-0.17-1.71-0.51-2.44c-0.34-0.72-0.84-1.3-1.49-1.72c-0.65-0.42-1.43-0.64-2.33-0.64
			c-0.9,0-1.67,0.21-2.31,0.64c-0.64,0.42-1.13,1-1.46,1.72c-0.33,0.72-0.5,1.53-0.5,2.44V13.92z"/>
		<path class="st0" d="M98.55,21.8c-0.18,0-0.32-0.05-0.43-0.16c-0.11-0.11-0.16-0.25-0.16-0.43V3.47c0-0.2,0.05-0.35,0.16-0.46
			c0.11-0.11,0.25-0.16,0.43-0.16h6.31c1.9,0,3.41,0.45,4.54,1.35c1.13,0.9,1.69,2.27,1.69,4.12c0,1.44-0.36,2.6-1.08,3.47
			c-0.72,0.87-1.72,1.45-3.01,1.76l4.36,7.42c0.05,0.11,0.08,0.21,0.08,0.3c0,0.14-0.05,0.27-0.16,0.38
			c-0.11,0.11-0.24,0.16-0.38,0.16h-0.32c-0.29,0-0.51-0.08-0.65-0.23c-0.14-0.15-0.27-0.32-0.38-0.5l-4.31-7.28h-5.58v7.42
			c0,0.18-0.05,0.32-0.16,0.43c-0.11,0.11-0.26,0.16-0.46,0.16H98.55z M99.66,12.16h5.06c1.57,0,2.74-0.32,3.51-0.96
			c0.77-0.64,1.15-1.6,1.15-2.88c0-1.28-0.38-2.24-1.15-2.88c-0.77-0.64-1.94-0.96-3.51-0.96h-5.06V12.16z"/>
		<path class="st0" d="M119.55,22.07c-1.75,0-3.14-0.57-4.17-1.72c-1.03-1.15-1.62-2.65-1.76-4.51c-0.02-0.27-0.03-0.63-0.03-1.08
			c0-0.45,0.01-0.81,0.03-1.08c0.09-1.23,0.38-2.31,0.87-3.25c0.49-0.94,1.16-1.67,2.02-2.19c0.86-0.52,1.87-0.79,3.05-0.79
			c1.26,0,2.34,0.28,3.22,0.84c0.88,0.56,1.57,1.36,2.04,2.41c0.48,1.05,0.72,2.29,0.72,3.74v0.41c0,0.18-0.06,0.32-0.18,0.43
			c-0.12,0.11-0.27,0.16-0.45,0.16h-9.64c0,0.14,0,0.23,0,0.27c0.04,0.81,0.23,1.58,0.57,2.32c0.34,0.73,0.83,1.33,1.46,1.79
			c0.63,0.46,1.38,0.69,2.25,0.69c0.78,0,1.42-0.12,1.94-0.35c0.51-0.23,0.93-0.49,1.23-0.77c0.31-0.28,0.51-0.49,0.6-0.64
			c0.16-0.23,0.29-0.37,0.38-0.42c0.09-0.04,0.23-0.07,0.43-0.07h0.43c0.16,0,0.3,0.05,0.42,0.15c0.12,0.1,0.17,0.23,0.15,0.39
			c-0.02,0.25-0.16,0.56-0.42,0.93c-0.26,0.37-0.63,0.74-1.11,1.1c-0.48,0.36-1.06,0.66-1.75,0.89S120.4,22.07,119.55,22.07z
			 M115.28,13.92h8.61v-0.11c0-0.9-0.17-1.71-0.51-2.44c-0.34-0.72-0.84-1.3-1.49-1.72c-0.65-0.42-1.43-0.64-2.33-0.64
			s-1.67,0.21-2.31,0.64c-0.64,0.42-1.13,1-1.46,1.72c-0.33,0.72-0.5,1.53-0.5,2.44V13.92z"/>
		<path class="st0" d="M132.76,22.07c-0.87,0-1.66-0.18-2.4-0.54c-0.73-0.36-1.32-0.84-1.77-1.45c-0.45-0.6-0.68-1.29-0.68-2.04
			c0-1.23,0.5-2.21,1.49-2.95c0.99-0.74,2.28-1.22,3.87-1.43l4.28-0.6v-0.95c0-0.96-0.29-1.71-0.88-2.26
			c-0.59-0.55-1.52-0.83-2.8-0.83c-0.94,0-1.7,0.19-2.27,0.55c-0.58,0.37-0.97,0.85-1.19,1.45c-0.09,0.27-0.26,0.41-0.51,0.41h-0.43
			c-0.22,0-0.37-0.06-0.46-0.18c-0.09-0.12-0.14-0.26-0.14-0.42c0-0.25,0.09-0.57,0.28-0.95c0.19-0.38,0.48-0.75,0.88-1.12
			c0.4-0.37,0.91-0.68,1.54-0.93c0.63-0.25,1.4-0.38,2.3-0.38c1.06,0,1.95,0.14,2.64,0.43c0.69,0.29,1.24,0.66,1.62,1.12
			c0.39,0.46,0.66,0.97,0.83,1.53c0.16,0.56,0.24,1.11,0.24,1.65v9.02c0,0.18-0.05,0.32-0.16,0.43c-0.11,0.11-0.25,0.16-0.43,0.16
			h-0.46c-0.18,0-0.32-0.05-0.43-0.16c-0.11-0.11-0.16-0.25-0.16-0.43v-1.27c-0.22,0.32-0.52,0.65-0.92,0.97
			c-0.4,0.32-0.91,0.6-1.53,0.83S133.7,22.07,132.76,22.07z M133.03,20.5c0.83,0,1.59-0.18,2.27-0.54c0.69-0.36,1.23-0.92,1.64-1.67
			c0.41-0.75,0.61-1.69,0.61-2.83v-0.92l-3.49,0.49c-1.48,0.2-2.6,0.54-3.36,1.03c-0.76,0.49-1.14,1.1-1.14,1.84
			c0,0.6,0.17,1.08,0.51,1.46c0.34,0.38,0.78,0.66,1.31,0.85C131.92,20.41,132.47,20.5,133.03,20.5z"/>
		<path class="st0" d="M147.59,22.07c-0.94,0-1.75-0.13-2.42-0.38c-0.68-0.25-1.23-0.56-1.67-0.91c-0.43-0.35-0.75-0.7-0.96-1.04
			c-0.21-0.34-0.32-0.6-0.34-0.79c-0.02-0.2,0.04-0.35,0.19-0.45c0.14-0.1,0.28-0.15,0.41-0.15h0.41c0.11,0,0.2,0.02,0.28,0.05
			s0.18,0.14,0.31,0.3c0.23,0.31,0.5,0.6,0.81,0.88c0.31,0.28,0.7,0.5,1.18,0.66c0.48,0.16,1.08,0.24,1.8,0.24
			c1.08,0,1.98-0.21,2.68-0.62c0.7-0.41,1.06-1.03,1.06-1.84c0-0.51-0.14-0.91-0.42-1.22c-0.28-0.31-0.75-0.58-1.42-0.81
			c-0.67-0.23-1.57-0.48-2.71-0.73c-1.14-0.27-2.01-0.6-2.61-0.97c-0.61-0.38-1.02-0.82-1.23-1.31c-0.22-0.5-0.33-1.03-0.33-1.61
			c0-0.63,0.18-1.25,0.54-1.85c0.36-0.6,0.9-1.1,1.61-1.49c0.71-0.39,1.61-0.58,2.69-0.58c0.88,0,1.64,0.12,2.26,0.35
			c0.62,0.23,1.13,0.52,1.53,0.85c0.4,0.33,0.69,0.66,0.88,0.99c0.19,0.32,0.29,0.59,0.31,0.79c0.02,0.18-0.04,0.32-0.16,0.43
			c-0.13,0.11-0.27,0.16-0.43,0.16h-0.41c-0.14,0-0.26-0.03-0.35-0.09c-0.09-0.06-0.17-0.15-0.24-0.26
			c-0.18-0.29-0.4-0.56-0.65-0.81c-0.25-0.25-0.59-0.46-1.02-0.61c-0.42-0.15-1-0.23-1.72-0.23c-1.08,0-1.89,0.22-2.41,0.66
			c-0.52,0.44-0.79,1.01-0.79,1.69c0,0.4,0.11,0.74,0.33,1.04c0.22,0.3,0.62,0.57,1.22,0.81c0.6,0.24,1.46,0.5,2.6,0.77
			c1.15,0.25,2.07,0.56,2.74,0.93c0.67,0.37,1.14,0.81,1.42,1.31c0.28,0.51,0.42,1.1,0.42,1.79c0,0.72-0.2,1.39-0.61,2
			c-0.41,0.61-1.01,1.11-1.81,1.48C149.75,21.89,148.77,22.07,147.59,22.07z"/>
		<path class="st0" d="M161.65,22.07c-1.3,0-2.39-0.27-3.26-0.81c-0.88-0.54-1.54-1.28-2-2.22c-0.46-0.94-0.71-1.99-0.74-3.14
			c-0.02-0.27-0.03-0.65-0.03-1.14c0-0.49,0.01-0.87,0.03-1.14c0.04-1.17,0.28-2.22,0.74-3.15c0.46-0.93,1.13-1.67,2-2.21
			c0.88-0.54,1.96-0.81,3.26-0.81c1.3,0,2.39,0.27,3.26,0.81c0.88,0.54,1.54,1.28,2,2.21c0.46,0.93,0.71,1.98,0.74,3.15
			c0.02,0.27,0.03,0.65,0.03,1.14c0,0.49-0.01,0.87-0.03,1.14c-0.04,1.16-0.28,2.2-0.74,3.14c-0.46,0.94-1.13,1.68-2,2.22
			C164.03,21.8,162.95,22.07,161.65,22.07z M161.65,20.5c1.26,0,2.29-0.41,3.09-1.22s1.22-1.99,1.27-3.52c0.02-0.27,0.03-0.6,0.03-1
			c0-0.4-0.01-0.73-0.03-1c-0.05-1.55-0.48-2.73-1.27-3.53c-0.79-0.8-1.82-1.2-3.09-1.2c-1.26,0-2.29,0.4-3.09,1.2
			c-0.8,0.8-1.22,1.98-1.27,3.53c-0.02,0.27-0.03,0.6-0.03,1c0,0.4,0.01,0.73,0.03,1c0.05,1.53,0.48,2.71,1.27,3.52
			C159.35,20.09,160.38,20.5,161.65,20.5z"/>
		<path class="st0" d="M171.67,21.8c-0.18,0-0.32-0.05-0.43-0.16c-0.11-0.11-0.16-0.25-0.16-0.43V8.32c0-0.18,0.05-0.32,0.16-0.43
			c0.11-0.11,0.25-0.16,0.43-0.16h0.46c0.18,0,0.32,0.05,0.43,0.16c0.11,0.11,0.16,0.25,0.16,0.43v1.27
			c0.49-0.63,1.08-1.15,1.77-1.54c0.69-0.4,1.62-0.6,2.77-0.6c1.23,0,2.25,0.27,3.07,0.8c0.82,0.53,1.44,1.25,1.84,2.17
			c0.41,0.91,0.61,1.95,0.61,3.1v7.69c0,0.18-0.05,0.32-0.16,0.43c-0.11,0.11-0.25,0.16-0.43,0.16h-0.46
			c-0.18,0-0.32-0.05-0.43-0.16c-0.11-0.11-0.16-0.25-0.16-0.43v-7.55c0-1.44-0.35-2.58-1.06-3.4c-0.7-0.82-1.73-1.23-3.09-1.23
			c-1.28,0-2.31,0.41-3.1,1.23c-0.79,0.82-1.18,1.95-1.18,3.4v7.55c0,0.18-0.05,0.32-0.16,0.43c-0.11,0.11-0.25,0.16-0.43,0.16
			H171.67z"/>
		<path class="st0" d="M191.16,22.07c-0.94,0-1.75-0.13-2.42-0.38c-0.68-0.25-1.23-0.56-1.67-0.91c-0.43-0.35-0.75-0.7-0.96-1.04
			c-0.21-0.34-0.32-0.6-0.34-0.79c-0.02-0.2,0.04-0.35,0.19-0.45c0.14-0.1,0.28-0.15,0.41-0.15h0.41c0.11,0,0.2,0.02,0.28,0.05
			s0.18,0.14,0.31,0.3c0.23,0.31,0.5,0.6,0.81,0.88c0.31,0.28,0.7,0.5,1.18,0.66c0.48,0.16,1.08,0.24,1.8,0.24
			c1.08,0,1.98-0.21,2.68-0.62c0.7-0.41,1.06-1.03,1.06-1.84c0-0.51-0.14-0.91-0.42-1.22c-0.28-0.31-0.75-0.58-1.42-0.81
			c-0.67-0.23-1.57-0.48-2.71-0.73c-1.14-0.27-2.01-0.6-2.61-0.97c-0.61-0.38-1.02-0.82-1.23-1.31c-0.22-0.5-0.33-1.03-0.33-1.61
			c0-0.63,0.18-1.25,0.54-1.85c0.36-0.6,0.9-1.1,1.61-1.49s1.61-0.58,2.69-0.58c0.88,0,1.64,0.12,2.26,0.35
			c0.62,0.23,1.13,0.52,1.53,0.85c0.4,0.33,0.69,0.66,0.88,0.99c0.19,0.32,0.29,0.59,0.31,0.79c0.02,0.18-0.04,0.32-0.16,0.43
			c-0.13,0.11-0.27,0.16-0.43,0.16h-0.41c-0.14,0-0.26-0.03-0.35-0.09c-0.09-0.06-0.17-0.15-0.24-0.26
			c-0.18-0.29-0.4-0.56-0.65-0.81c-0.25-0.25-0.59-0.46-1.02-0.61c-0.42-0.15-1-0.23-1.72-0.23c-1.08,0-1.89,0.22-2.41,0.66
			c-0.52,0.44-0.79,1.01-0.79,1.69c0,0.4,0.11,0.74,0.33,1.04c0.22,0.3,0.62,0.57,1.22,0.81c0.6,0.24,1.46,0.5,2.6,0.77
			c1.15,0.25,2.07,0.56,2.74,0.93c0.67,0.37,1.14,0.81,1.42,1.31c0.28,0.51,0.42,1.1,0.42,1.79c0,0.72-0.2,1.39-0.61,2
			c-0.41,0.61-1.01,1.11-1.81,1.48C193.32,21.89,192.34,22.07,191.16,22.07z"/>
	</g>
	<g>
		<g>
			<circle class="st0" cx="73.29" cy="12.75" r="4.1"/>
		</g>
		<g>
			<circle class="st0" cx="65.09" cy="4.56" r="4.1"/>
			<circle class="st0" cx="65.09" cy="20.95" r="4.1"/>
		</g>
		<g>
			<circle class="st0" cx="81.48" cy="4.56" r="4.1"/>
			<circle class="st0" cx="81.48" cy="20.95" r="4.1"/>
		</g>
	</g>
</g>
</svg>
